HIERARCHY
ROOT Pelvis
{
	OFFSET 0.000000 0.000000 0.000000
	CHANNELS 6 Xposition Yposition Zposition Xrotation Yrotation Zrotation
	JOINT LeftUpLeg_virtual
	{
		OFFSET 0.000000 0.000000 0.000000
		CHANNELS 3 Xrotation Yrotation Zrotation
		JOINT LeftUpLeg
		{
			OFFSET 18.735201 -5.666702 -4.541200
			CHANNELS 3 Xrotation Yrotation Zrotation
			JOINT LeftLeg
			{
				OFFSET -0.021200 -31.938179 0.493100
				CHANNELS 3 Xrotation Yrotation Zrotation
				JOINT LeftFoot
				{
					OFFSET 0.021200 -31.938179 -4.336299
					CHANNELS 3 Xrotation Yrotation Zrotation
					JOINT LeftToeBase
					{
						OFFSET 0.943001 -26.722000 15.023500
						CHANNELS 3 Xrotation Yrotation Zrotation
						End Site
						{
							OFFSET 0 0 0
						}
					}
				}
			}
		}
	}
	JOINT RightUpLeg_virtual
	{
		OFFSET 0.000000 0.000000 0.000000
		CHANNELS 3 Xrotation Yrotation Zrotation
		JOINT RightUpLeg
		{
			OFFSET -18.735201 -5.666702 -4.541200
			CHANNELS 3 Xrotation Yrotation Zrotation
			JOINT RightLeg
			{
				OFFSET 0.018946 -31.938133 0.493100
				CHANNELS 3 Xrotation Yrotation Zrotation
				JOINT RightFoot
				{
					OFFSET -0.018946 -31.938126 -4.336299
					CHANNELS 3 Xrotation Yrotation Zrotation
					JOINT RightToeBase
					{
						OFFSET -0.943001 -26.722004 15.023500
						CHANNELS 3 Xrotation Yrotation Zrotation
						End Site
						{
							OFFSET 0 0 0
						}
					}
				}
			}
		}
	}
	JOINT Hips_virtual
	{
		OFFSET 0.000000 0.000000 0.000000
		CHANNELS 3 Xrotation Yrotation Zrotation
		JOINT Hips
		{
			OFFSET -0.000000 -0.000000 -0.000000
			CHANNELS 3 Xrotation Yrotation Zrotation
			JOINT Spine
			{
				OFFSET 0.000000 10.199997 -0.299500
				CHANNELS 3 Xrotation Yrotation Zrotation
				JOINT Spine1
				{
					OFFSET 0.000000 11.900002 -1.516600
					CHANNELS 3 Xrotation Yrotation Zrotation
					JOINT Spine2
					{
						OFFSET 0.000000 13.600006 -2.842500
						CHANNELS 3 Xrotation Yrotation Zrotation
						JOINT Neck_virtual
						{
							OFFSET 0.000000 0.000000 0.000000
							CHANNELS 3 Xrotation Yrotation Zrotation
							JOINT Neck
							{
								OFFSET 0.000000 9.624100 -2.890100
								CHANNELS 3 Xrotation Yrotation Zrotation
								JOINT Head
								{
									OFFSET 0.000000 14.068802 -1.351900
									CHANNELS 3 Xrotation Yrotation Zrotation
									End Site
									{
										OFFSET 0 0 0
									}
								}
							}
						}
						JOINT LeftShoulder_virtual
						{
							OFFSET 0.000000 0.000000 0.000000
							CHANNELS 3 Xrotation Yrotation Zrotation
							JOINT LeftShoulder
							{
								OFFSET 15.263000 10.923401 -0.547700
								CHANNELS 3 Xrotation Yrotation Zrotation
								JOINT LeftArm
								{
									OFFSET 25.438599 -2.830597 -13.032500
									CHANNELS 3 Xrotation Yrotation Zrotation
									JOINT LeftForeArm
									{
										OFFSET 29.960503 0.000000 0.000000
										CHANNELS 3 Xrotation Yrotation Zrotation
										JOINT LeftHand
										{
											OFFSET 27.849251 0.000000 0.000000
											CHANNELS 3 Xrotation Yrotation Zrotation
											End Site
											{
												OFFSET 0 0 0
											}
										}
									}
								}
							}
						}
						JOINT RightShoulder_virtual
						{
							OFFSET 0.000000 0.000000 0.000000
							CHANNELS 3 Xrotation Yrotation Zrotation
							JOINT RightShoulder
							{
								OFFSET -15.263000 10.923401 -0.547700
								CHANNELS 3 Xrotation Yrotation Zrotation
								JOINT RightArm
								{
									OFFSET -25.438599 -2.830597 -13.032500
									CHANNELS 3 Xrotation Yrotation Zrotation
									JOINT RightForeArm
									{
										OFFSET -29.960503 0.000000 0.000000
										CHANNELS 3 Xrotation Yrotation Zrotation
										JOINT RightHand
										{
											OFFSET -27.849251 0.000000 0.000000
											CHANNELS 3 Xrotation Yrotation Zrotation
											End Site
											{
												OFFSET 0 0 0
											}
										}
									}
								}
							}
						}
					}
				}
			}
		}
	}
}
MOTION
Frames: 13
Frame Time: 0.03333333
0.878099 78.433945 17.431446 0.000000 0.000000 0.000000 0.276800 -29.959580 -1.975941 -52.414602 -4.572804 23.706144 73.205804 -1.262856 0.065065 -20.312412 -6.834241 -14.935431 0.000000 0.000000 0.000000 0.276800 -29.959580 -1.975941 -11.733789 -14.463571 -32.409493 52.882504 -5.284000 -7.461999 -15.314689 -10.449361 26.151889 0.000000 0.000000 0.000000 0.276800 -29.959580 -1.975941 0.000000 0.000000 0.000000 12.062035 8.976084 -5.955423 2.723682 1.552889 -1.611382 0.000000 0.000000 0.000000 2.746779 1.530460 -1.591251 0.075640 1.885360 0.202726 0.000000 0.000000 0.000000 2.746779 1.530460 -1.591251 0.920476 1.300391 -6.093184 -59.606392 1.454199 -47.058815 -179.999814 -70.850194 -179.999827 0.000000 0.000000 0.000000 2.746779 1.530460 -1.591251 2.590443 21.406221 -4.318639 -39.313469 17.241006 46.560396 179.999991 66.687536 -179.999991 0.000000 0.000000 0.000000 
0.824810 78.256226 16.453981 0.000000 0.000000 0.000000 -0.346681 -31.729497 -1.911484 -51.618195 -4.442753 24.710209 73.117339 -0.832411 -0.425536 -20.036601 -6.625085 -15.345255 0.000000 0.000000 0.000000 -0.346681 -31.729497 -1.911484 -11.741543 -14.229560 -32.820930 54.018962 -5.220514 -6.778907 -17.069094 -12.752354 27.152444 0.000000 0.000000 0.000000 -0.346681 -31.729497 -1.911484 0.000000 -0.000002 0.000000 12.099154 8.763696 -5.729745 2.734886 1.491815 -1.567835 0.000000 0.000000 0.000000 2.758106 1.469819 -1.547381 0.145196 2.016257 0.125396 0.000000 0.000000 0.000000 2.758106 1.469819 -1.547381 0.919441 1.163409 -5.967903 -60.124448 1.960623 -46.784163 -179.999814 -71.146884 -179.999814 0.000000 0.000000 0.000000 2.758106 1.469819 -1.547381 2.580095 21.227863 -4.233259 -40.248870 17.716350 48.393912 -179.999964 67.351771 179.999950 0.000000 0.000000 0.000000 
0.743066 78.082893 15.440639 0.000000 0.000000 0.000000 -0.887742 -33.296848 -1.790306 -50.965803 -4.273447 25.624908 72.901737 -0.460329 -0.878390 -19.588870 -6.474573 -15.671067 0.000000 0.000000 0.000000 -0.887742 -33.296848 -1.790306 -11.523813 -14.071142 -32.626557 54.723083 -5.205890 -6.730992 -18.956504 -15.401286 28.255799 0.000000 0.000000 0.000000 -0.887742 -33.296848 -1.790306 0.000000 0.000003 0.000000 12.094119 8.530626 -5.520124 2.734735 1.427240 -1.530577 0.000000 0.000000 0.000000 2.757619 1.406167 -1.509497 0.230015 2.133438 0.042931 0.000000 0.000000 0.000000 2.757619 1.406167 -1.509497 0.848222 1.234092 -5.801385 -60.427367 2.491306 -46.713067 -179.999732 -71.599008 -179.999718 0.000000 0.000000 0.000000 2.757619 1.406167 -1.509497 2.551281 20.915496 -4.132411 -41.238353 18.236702 50.341441 -179.999909 67.992266 179.999937 0.000000 0.000000 0.000000 
0.645489 77.926102 14.397150 0.000000 0.000000 0.000000 -1.368771 -34.668165 -1.619745 -50.428509 -4.075199 26.422874 72.529731 -0.124493 -1.282105 -18.957229 -6.387113 -15.923363 0.000000 0.000000 0.000000 -1.368771 -34.668165 -1.619745 -11.380459 -13.917250 -32.347441 55.287690 -5.302363 -6.814241 -21.032956 -17.502747 29.062824 0.000000 0.000000 0.000000 -1.368771 -34.668165 -1.619745 0.000000 -0.000002 0.000000 12.075324 8.287438 -5.312919 2.730772 1.361152 -1.496503 0.000000 0.000000 0.000000 2.753142 1.341179 -1.474810 0.331836 2.238953 -0.038938 0.000000 0.000000 0.000000 2.753142 1.341179 -1.474810 0.768328 1.378884 -5.675010 -60.613926 2.997518 -46.737998 -179.999909 -72.073386 -179.999909 0.000000 0.000000 0.000000 2.753142 1.341179 -1.474810 2.521654 20.583212 -4.040480 -42.285397 18.731702 52.282137 179.999964 68.588671 -179.999964 0.000000 0.000000 0.000000 
0.544929 77.808517 13.340868 0.000000 0.000000 0.000000 -1.787324 -35.859569 -1.388147 -49.959828 -3.836815 27.077172 71.943728 0.194296 -1.635622 -18.143028 -6.368903 -16.109892 0.000000 0.000000 0.000000 -1.787324 -35.859569 -1.388147 -11.715295 -13.687834 -32.422676 56.056244 -5.634069 -6.666666 -23.649667 -18.042097 28.846857 0.000000 0.000000 0.000000 -1.787324 -35.859569 -1.388147 0.000000 0.000002 0.000000 12.058746 8.030563 -5.109942 2.726338 1.293487 -1.468238 0.000000 0.000000 0.000000 2.748195 1.274538 -1.446135 0.452090 2.337299 -0.106116 0.000000 0.000000 0.000000 2.748195 1.274538 -1.446135 0.723370 1.519085 -5.655420 -60.780166 3.446320 -46.778422 -179.999677 -72.457830 -179.999718 0.000000 0.000000 0.000000 2.748195 1.274538 -1.446135 2.511054 20.376135 -3.971665 -43.426995 19.111102 54.090601 -179.999827 69.116037 179.999841 0.000000 0.000000 0.000000 
0.398516 77.722008 12.257153 0.000000 0.000000 0.000000 -2.167172 -36.829582 -1.179831 -49.583430 -3.641856 27.667679 71.199661 0.478171 -1.927776 -17.150544 -6.407630 -16.241148 0.000000 0.000000 0.000000 -2.167172 -36.829582 -1.179831 -12.526849 -13.278680 -32.828888 57.177119 -5.838368 -6.474025 -25.785004 -17.623471 28.565279 0.000000 0.000000 0.000000 -2.167172 -36.829582 -1.179831 0.000000 0.000002 0.000000 12.045291 7.753288 -4.817977 2.724133 1.219599 -1.422285 0.000000 0.000000 0.000000 2.745504 1.201864 -1.399953 0.582927 2.428739 -0.187804 0.000000 0.000000 0.000000 2.745504 1.201864 -1.399953 0.705875 1.659753 -5.723524 -60.806237 3.904423 -46.886595 -179.999281 -72.754328 -179.999308 0.000000 0.000000 0.000000 2.745504 1.201864 -1.399953 2.512055 20.192005 -4.001454 -44.537714 19.415820 55.831626 -179.999909 69.578618 179.999909 0.000000 0.000000 0.000000 
0.228915 77.680931 11.149857 0.000000 0.000000 0.000000 -2.532441 -37.546813 -1.087729 -49.328220 -3.534942 28.223170 70.343784 0.737997 -2.132286 -15.988728 -6.505411 -16.297350 0.000000 0.000000 0.000000 -2.532441 -37.546813 -1.087729 -13.364040 -12.986245 -33.447027 58.112807 -6.014340 -6.196307 -27.293933 -16.498196 28.749356 0.000000 0.000000 0.000000 -2.532441 -37.546813 -1.087729 0.000000 0.000001 0.000000 12.038414 7.438046 -4.332625 2.728192 1.133295 -1.333676 0.000000 0.000000 0.000000 2.749305 1.117038 -1.311336 0.717504 2.517310 -0.316510 0.000000 0.000000 0.000000 2.749305 1.117038 -1.311336 0.720751 1.794968 -5.890578 -60.570131 4.436038 -47.102211 -179.999131 -72.916641 -179.999131 0.000000 0.000000 0.000000 2.749305 1.117038 -1.311336 2.524405 19.980620 -4.230785 -45.510674 19.661227 57.563277 -179.999978 69.969578 179.999950 0.000000 0.000000 0.000000 
0.068428 77.677734 10.083647 0.000000 0.000000 0.000000 -2.881128 -37.981777 -1.089113 -49.221803 -3.487942 28.665901 69.471507 1.049986 -2.249405 -14.735291 -6.711946 -16.234356 0.000000 0.000000 0.000000 -2.881128 -37.981777 -1.089113 -14.106370 -12.820811 -34.020134 58.916822 -6.212098 -5.874289 -28.432824 -15.188819 29.001711 0.000000 0.000000 0.000000 -2.881128 -37.981777 -1.089113 0.000000 0.000000 0.000000 12.043514 7.100706 -3.682959 2.737870 1.038792 -1.211377 0.000000 0.000000 0.000000 2.758771 1.024573 -1.189282 0.855229 2.596091 -0.468621 0.000000 0.000000 0.000000 2.758771 1.024573 -1.189282 0.774340 1.877368 -6.132327 -60.171357 5.006982 -47.392613 -179.999103 -72.979799 -179.999144 0.000000 0.000000 0.000000 2.758771 1.024573 -1.189282 2.540913 19.732056 -4.595724 -46.360312 19.862841 59.223669 -179.999923 70.298520 179.999909 0.000000 0.000000 0.000000 
-0.067278 77.754402 9.099319 0.000000 0.000000 0.000000 -3.243108 -38.025992 -1.233133 -49.234264 -3.651530 29.153617 68.294720 1.165742 -2.337635 -12.701825 -6.959459 -16.561365 0.000000 0.000000 0.000000 -3.243108 -38.025992 -1.233133 -14.523598 -12.918591 -34.198631 59.526929 -6.514234 -5.557252 -29.167886 -14.321843 29.065744 0.000000 0.000000 0.000000 -3.243108 -38.025992 -1.233133 0.000000 0.000002 0.000000 12.097488 6.722280 -2.807264 2.762019 0.931088 -1.042182 0.000000 0.000000 0.000000 2.782706 0.919989 -1.020691 0.988530 2.657570 -0.641554 0.000000 0.000000 0.000000 2.782706 0.919989 -1.020691 0.887036 1.821081 -6.441182 -59.658178 5.673433 -47.725175 -179.999896 -72.907912 -179.999882 0.000000 0.000000 0.000000 2.782706 0.919989 -1.020691 2.555749 19.402993 -5.121958 -47.064405 20.020562 60.797781 179.999909 70.550431 -179.999909 0.000000 0.000000 0.000000 
-0.205180 77.866241 8.155775 0.000000 0.000000 0.000000 -3.544818 -37.885017 -1.358000 -49.366459 -3.835766 29.499942 67.009449 1.252390 -2.366422 -10.446003 -7.294348 -16.790277 0.000000 0.000000 0.000000 -3.544818 -37.885017 -1.358000 -14.777010 -13.067566 -34.264832 60.005773 -6.760725 -5.216082 -29.672712 -13.673158 29.176256 0.000000 0.000000 0.000000 -3.544818 -37.885017 -1.358000 0.000000 0.000001 0.000000 12.115386 6.381116 -1.913322 2.777064 0.831491 -0.869188 0.000000 0.000000 0.000000 2.797521 0.823756 -0.848378 1.130907 2.706667 -0.805015 0.000000 0.000000 0.000000 2.797521 0.823756 -0.848378 1.015794 1.734050 -6.777656 -59.062790 6.224858 -48.133149 179.999896 -72.867115 179.999923 0.000000 0.000000 0.000000 2.797521 0.823756 -0.848378 2.560925 19.044642 -5.640544 -47.617039 20.209247 62.203974 -179.999814 70.794153 179.999814 0.000000 0.000000 0.000000 
-0.365794 77.968582 7.229424 0.000000 0.000000 0.000000 -3.717561 -37.695476 -1.306121 -49.639988 -3.990474 29.644510 65.577678 1.254664 -2.319849 -7.950419 -7.718987 -16.926747 0.000000 0.000000 0.000000 -3.717561 -37.695476 -1.306121 -14.909031 -13.067611 -34.422798 60.358122 -6.786278 -4.794900 -30.063245 -13.250570 29.560335 0.000000 0.000000 0.000000 -3.717561 -37.695476 -1.306121 0.000000 -0.000001 0.000000 12.004922 6.145703 -1.199827 2.757951 0.759648 -0.733175 0.000000 0.000000 0.000000 2.778167 0.754784 -0.712768 1.302004 2.744682 -0.927222 0.000000 0.000000 0.000000 2.778167 0.754784 -0.712768 1.131832 1.689431 -7.109514 -58.423683 6.433933 -48.646195 -180.000005 -73.053695 180.000005 0.000000 0.000000 0.000000 2.778167 0.754784 -0.712768 2.548407 18.665608 -5.977052 -47.962531 20.529532 63.341576 -179.999623 71.123627 179.999636 0.000000 0.000000 0.000000 
-0.542727 78.087517 6.331614 0.000000 0.000000 0.000000 -3.794631 -37.548487 -1.111272 -49.982744 -4.029344 29.630737 64.166403 1.246882 -2.233671 -5.393800 -8.218494 -16.824923 0.000000 0.000000 0.000000 -3.794631 -37.548487 -1.111272 -15.098548 -12.970811 -34.558961 60.702917 -6.647688 -4.424611 -30.444373 -13.081667 29.850454 0.000000 0.000000 0.000000 -3.794631 -37.548487 -1.111272 0.000000 -0.000001 0.000000 11.835634 6.009379 -0.673002 2.721951 0.714493 -0.635726 0.000000 0.000000 0.000000 2.741940 0.711765 -0.615627 1.475274 2.775470 -1.009651 0.000000 0.000000 0.000000 2.741940 0.711765 -0.615627 1.219577 1.709481 -7.408400 -57.792416 6.411615 -49.203897 -179.999158 -73.336206 -179.999172 0.000000 0.000000 0.000000 2.741940 0.711765 -0.615627 2.534010 18.343899 -6.180943 -48.221463 20.907644 64.254035 -179.999896 71.448970 179.999909 0.000000 0.000000 0.000000 
-0.748544 78.241417 5.454441 0.000000 0.000000 0.000000 -3.759652 -37.614811 -0.696755 -50.735212 -4.194959 29.433198 63.253043 1.251897 -2.146185 -2.422145 -8.790739 -16.398314 0.000000 0.000000 0.000000 -3.759652 -37.614811 -0.696755 -15.698261 -12.693257 -34.737212 61.284132 -6.501788 -4.259424 -30.846026 -12.957228 29.923349 0.000000 0.000000 0.000000 -3.759652 -37.614811 -0.696755 0.000000 -0.000004 0.000000 11.625920 6.015666 -0.470200 2.672644 0.709726 -0.605412 0.000000 0.000000 0.000000 2.692396 0.707503 -0.585586 1.633502 2.801601 -1.032591 0.000000 0.000000 0.000000 2.692396 0.707503 -0.585586 1.245588 1.868604 -7.630061 -57.238262 6.130697 -49.787093 179.999732 -73.687154 179.999718 0.000000 0.000000 0.000000 2.692396 0.707503 -0.585586 2.536899 18.208801 -6.200681 -48.492670 21.272773 64.876265 -179.999950 71.700020 179.999937 0.000000 0.000000 0.000000 
